# 3ds Max Wavefront OBJ Exporter v0.99 - (c)2007 guruware
# ÆÄÀÏ »ı¼ºµÊ: 12.01.2021 19:07:39

mtllib hg.mtl

#
# object Box002
#

v  4.2439 0.8333 10.9357
v  4.0772 0.8333 10.9357
v  4.2439 0.6667 10.9357
v  4.4106 0.6667 10.9357
v  4.5772 0.6667 10.9357
v  4.4106 0.8333 10.9357
v  4.0772 0.6667 10.9357
v  4.2439 0.5000 10.9357
v  4.4106 0.5000 10.9357
v  4.5772 0.5000 10.9357
v  4.0772 0.5000 10.9357
v  4.2439 0.3333 10.9357
v  4.4106 0.3333 10.9357
v  4.5772 0.3333 10.9357
v  4.0772 0.3333 10.9357
v  4.2439 0.1667 10.9357
v  4.4106 0.1667 10.9357
v  4.5772 0.1667 10.9357
v  4.7439 0.6667 10.9357
v  4.5772 0.8333 10.9357
v  4.7439 0.5000 10.9357
v  4.7439 0.3333 10.9357
v  4.7439 0.1667 10.9357
v  4.9106 0.6667 10.9357
v  4.7439 0.8333 10.9357
v  4.9106 0.5000 10.9357
v  4.9106 0.3333 10.9357
v  4.9106 0.1667 10.9357
v  5.0772 0.6667 10.9357
v  4.9106 0.8333 10.9357
v  5.0772 0.5000 10.9357
v  5.0772 0.3333 10.9357
v  5.0772 0.1667 10.9357
v  4.0772 1.0000 10.9357
v  4.2439 1.0000 10.9357
v  4.2439 0.0000 10.9357
v  4.4106 0.0000 10.9357
v  4.0772 0.1667 10.9357
v  4.0772 0.0000 10.9357
v  5.0772 0.0000 10.9357
v  4.9106 0.0000 10.9357
v  4.9106 1.0000 10.9357
v  4.7439 1.0000 10.9357
v  5.0772 0.8333 10.9357
v  5.0772 1.0000 10.9357
v  4.5772 0.0000 10.9357
v  4.5772 1.0000 10.9357
v  4.7439 0.0000 10.9357
v  4.4106 1.0000 10.9357
v  5.0772 0.8333 10.7690
v  5.0772 0.6667 10.7690
v  5.0772 0.6667 10.6023
v  5.0772 0.6667 10.4357
v  5.0772 0.8333 10.6023
v  5.0772 0.5000 10.7690
v  5.0772 0.5000 10.6023
v  5.0772 0.5000 10.4357
v  5.0772 0.3333 10.7690
v  5.0772 0.3333 10.6023
v  5.0772 0.3333 10.4357
v  5.0772 0.1667 10.7690
v  5.0772 0.1667 10.6023
v  5.0772 0.1667 10.4357
v  5.0772 0.6667 10.2690
v  5.0772 0.8333 10.4357
v  5.0772 0.5000 10.2690
v  5.0772 0.3333 10.2690
v  5.0772 0.1667 10.2690
v  5.0772 0.6667 10.1023
v  5.0772 0.8333 10.2690
v  5.0772 0.5000 10.1023
v  5.0772 0.3333 10.1023
v  5.0772 0.1667 10.1023
v  5.0772 0.6667 9.9357
v  5.0772 0.8333 10.1023
v  5.0772 0.5000 9.9357
v  5.0772 0.3333 9.9357
v  5.0772 0.1667 9.9357
v  5.0772 1.0000 10.7690
v  5.0772 0.0000 10.7690
v  5.0772 0.0000 10.6023
v  5.0772 0.0000 9.9357
v  5.0772 0.0000 10.1023
v  5.0772 1.0000 10.1023
v  5.0772 1.0000 10.2690
v  5.0772 0.8333 9.9357
v  5.0772 1.0000 9.9357
v  5.0772 0.0000 10.4357
v  5.0772 1.0000 10.4357
v  5.0772 0.0000 10.2690
v  5.0772 1.0000 10.6023
v  4.9106 0.8333 9.9357
v  4.9106 0.6667 9.9357
v  4.7439 0.6667 9.9357
v  4.5772 0.6667 9.9357
v  4.7439 0.8333 9.9357
v  4.9106 0.5000 9.9357
v  4.7439 0.5000 9.9357
v  4.5772 0.5000 9.9357
v  4.9106 0.3333 9.9357
v  4.7439 0.3333 9.9357
v  4.5772 0.3333 9.9357
v  4.9106 0.1667 9.9357
v  4.7439 0.1667 9.9357
v  4.5772 0.1667 9.9357
v  4.4106 0.6667 9.9357
v  4.5772 0.8333 9.9357
v  4.4106 0.5000 9.9357
v  4.4106 0.3333 9.9357
v  4.4106 0.1667 9.9357
v  4.2439 0.6667 9.9357
v  4.4106 0.8333 9.9357
v  4.2439 0.5000 9.9357
v  4.2439 0.3333 9.9357
v  4.2439 0.1667 9.9357
v  4.0772 0.6667 9.9357
v  4.2439 0.8333 9.9357
v  4.0772 0.5000 9.9357
v  4.0772 0.3333 9.9357
v  4.0772 0.1667 9.9357
v  4.9106 1.0000 9.9357
v  4.9106 0.0000 9.9357
v  4.7439 0.0000 9.9357
v  4.0772 0.0000 9.9357
v  4.2439 0.0000 9.9357
v  4.2439 1.0000 9.9357
v  4.4106 1.0000 9.9357
v  4.0772 0.8333 9.9357
v  4.0772 1.0000 9.9357
v  4.5772 0.0000 9.9357
v  4.5772 1.0000 9.9357
v  4.4106 0.0000 9.9357
v  4.7439 1.0000 9.9357
v  4.0772 0.8333 10.1023
v  4.0772 0.6667 10.1023
v  4.0772 0.6667 10.2690
v  4.0772 0.6667 10.4357
v  4.0772 0.8333 10.2690
v  4.0772 0.5000 10.1023
v  4.0772 0.5000 10.2690
v  4.0772 0.5000 10.4357
v  4.0772 0.3333 10.1023
v  4.0772 0.3333 10.2690
v  4.0772 0.3333 10.4357
v  4.0772 0.1667 10.1023
v  4.0772 0.1667 10.2690
v  4.0772 0.1667 10.4357
v  4.0772 0.6667 10.6023
v  4.0772 0.8333 10.4357
v  4.0772 0.5000 10.6023
v  4.0772 0.3333 10.6023
v  4.0772 0.1667 10.6023
v  4.0772 0.6667 10.7690
v  4.0772 0.8333 10.6023
v  4.0772 0.5000 10.7690
v  4.0772 0.3333 10.7690
v  4.0772 0.1667 10.7690
v  4.0772 0.8333 10.7690
v  4.0772 1.0000 10.1023
v  4.0772 0.0000 10.1023
v  4.0772 0.0000 10.2690
v  4.0772 0.0000 10.7690
v  4.0772 1.0000 10.7690
v  4.0772 1.0000 10.6023
v  4.0772 0.0000 10.4357
v  4.0772 1.0000 10.4357
v  4.0772 0.0000 10.6023
v  4.0772 1.0000 10.2690
v  4.2439 0.0000 10.7690
v  4.2439 0.0000 10.6023
v  4.4106 0.0000 10.6023
v  4.5772 0.0000 10.6023
v  4.4106 0.0000 10.7690
v  4.2439 0.0000 10.4357
v  4.4106 0.0000 10.4357
v  4.5772 0.0000 10.4357
v  4.2439 0.0000 10.2690
v  4.4106 0.0000 10.2690
v  4.5772 0.0000 10.2690
v  4.2439 0.0000 10.1023
v  4.4106 0.0000 10.1023
v  4.5772 0.0000 10.1023
v  4.7439 0.0000 10.6023
v  4.5772 0.0000 10.7690
v  4.7439 0.0000 10.4357
v  4.7439 0.0000 10.2690
v  4.7439 0.0000 10.1023
v  4.9106 0.0000 10.6023
v  4.7439 0.0000 10.7690
v  4.9106 0.0000 10.4357
v  4.9106 0.0000 10.2690
v  4.9106 0.0000 10.1023
v  4.9106 0.0000 10.7690
v  4.2439 1.0000 10.1023
v  4.2439 1.0000 10.2690
v  4.4106 1.0000 10.2690
v  4.5772 1.0000 10.2690
v  4.4106 1.0000 10.1023
v  4.2439 1.0000 10.4357
v  4.4106 1.0000 10.4357
v  4.5772 1.0000 10.4357
v  4.2439 1.0000 10.6023
v  4.4106 1.0000 10.6023
v  4.5772 1.0000 10.6023
v  4.2439 1.0000 10.7690
v  4.4106 1.0000 10.7690
v  4.5772 1.0000 10.7690
v  4.7439 1.0000 10.2690
v  4.5772 1.0000 10.1023
v  4.7439 1.0000 10.4357
v  4.7439 1.0000 10.6023
v  4.7439 1.0000 10.7690
v  4.9106 1.0000 10.2690
v  4.7439 1.0000 10.1023
v  4.9106 1.0000 10.4357
v  4.9106 1.0000 10.6023
v  4.9106 1.0000 10.7690
v  4.9106 1.0000 10.1023
# 218 vertices

vn 0.0000 -0.0000 1.0000
vn -0.7071 -0.0000 0.7071
vn 0.0000 0.0000 1.0000
vn -0.0000 0.0000 1.0000
vn -0.0000 -0.0000 1.0000
vn -0.7071 0.0000 0.7071
vn 0.7071 0.0000 0.7071
vn 0.7071 -0.0000 0.7071
vn -0.5774 0.5774 0.5774
vn -0.0000 0.7071 0.7071
vn 0.0000 -0.7071 0.7071
vn -0.0000 -0.7071 0.7071
vn -0.5774 -0.5774 0.5774
vn 0.5774 -0.5774 0.5774
vn 0.0000 0.7071 0.7071
vn 0.5774 0.5774 0.5774
vn 1.0000 -0.0000 -0.0000
vn 1.0000 0.0000 -0.0000
vn 1.0000 0.0000 0.0000
vn 1.0000 -0.0000 0.0000
vn 0.7071 0.0000 -0.7071
vn 0.7071 -0.0000 -0.7071
vn 0.7071 0.7071 0.0000
vn 0.7071 -0.7071 -0.0000
vn 0.7071 -0.7071 0.0000
vn 0.5774 -0.5774 -0.5774
vn 0.7071 0.7071 -0.0000
vn 0.5774 0.5774 -0.5774
vn -0.0000 -0.0000 -1.0000
vn -0.0000 0.0000 -1.0000
vn 0.0000 0.0000 -1.0000
vn 0.0000 -0.0000 -1.0000
vn -0.7071 0.0000 -0.7071
vn -0.7071 -0.0000 -0.7071
vn 0.0000 0.7071 -0.7071
vn -0.0000 -0.7071 -0.7071
vn 0.0000 -0.7071 -0.7071
vn -0.5774 -0.5774 -0.5774
vn -0.0000 0.7071 -0.7071
vn -0.5774 0.5774 -0.5774
vn -1.0000 -0.0000 0.0000
vn -1.0000 0.0000 0.0000
vn -1.0000 0.0000 -0.0000
vn -1.0000 -0.0000 -0.0000
vn -0.7071 0.7071 -0.0000
vn -0.7071 -0.7071 0.0000
vn -0.7071 -0.7071 -0.0000
vn -0.7071 0.7071 0.0000
vn 0.0000 -1.0000 -0.0000
vn 0.0000 1.0000 -0.0000
vn -0.0000 1.0000 -0.0000
vn -0.0000 1.0000 0.0000
vn 0.0000 1.0000 0.0000
# 53 vertex normals

vt 0.5826 0.6977 0.0000
vt 0.5826 0.7371 0.0000
vt 0.5429 0.6977 0.0000
vt 0.5429 0.6583 0.0000
vt 0.5429 0.6189 0.0000
vt 0.5826 0.6583 0.0000
vt 0.5429 0.7371 0.0000
vt 0.5032 0.6977 0.0000
vt 0.5032 0.6583 0.0000
vt 0.5032 0.6189 0.0000
vt 0.5032 0.7371 0.0000
vt 0.4636 0.6977 0.0000
vt 0.4636 0.6583 0.0000
vt 0.4636 0.6189 0.0000
vt 0.4636 0.7371 0.0000
vt 0.4239 0.6977 0.0000
vt 0.4239 0.6583 0.0000
vt 0.4239 0.6189 0.0000
vt 0.5429 0.5795 0.0000
vt 0.5826 0.6189 0.0000
vt 0.5032 0.5795 0.0000
vt 0.4636 0.5795 0.0000
vt 0.4239 0.5795 0.0000
vt 0.5429 0.5401 0.0000
vt 0.5826 0.5795 0.0000
vt 0.5032 0.5401 0.0000
vt 0.4636 0.5401 0.0000
vt 0.4239 0.5401 0.0000
vt 0.5429 0.5007 0.0000
vt 0.5826 0.5401 0.0000
vt 0.5032 0.5007 0.0000
vt 0.4636 0.5007 0.0000
vt 0.4239 0.5007 0.0000
vt 0.6222 0.7371 0.0000
vt 0.6222 0.6977 0.0000
vt 0.3842 0.6977 0.0000
vt 0.3842 0.6583 0.0000
vt 0.4239 0.7371 0.0000
vt 0.3842 0.7371 0.0000
vt 0.3842 0.5007 0.0000
vt 0.3842 0.5401 0.0000
vt 0.6222 0.5401 0.0000
vt 0.6222 0.5795 0.0000
vt 0.5826 0.5007 0.0000
vt 0.6222 0.5007 0.0000
vt 0.3842 0.6189 0.0000
vt 0.6222 0.6189 0.0000
vt 0.3842 0.5795 0.0000
vt 0.6222 0.6583 0.0000
vt 0.5826 0.4613 0.0000
vt 0.5429 0.4613 0.0000
vt 0.5429 0.4219 0.0000
vt 0.5429 0.3825 0.0000
vt 0.5826 0.4219 0.0000
vt 0.5032 0.4613 0.0000
vt 0.5032 0.4219 0.0000
vt 0.5032 0.3825 0.0000
vt 0.4636 0.4613 0.0000
vt 0.4636 0.4219 0.0000
vt 0.4636 0.3825 0.0000
vt 0.4239 0.4613 0.0000
vt 0.4239 0.4219 0.0000
vt 0.4239 0.3825 0.0000
vt 0.5429 0.3431 0.0000
vt 0.5826 0.3825 0.0000
vt 0.5032 0.3431 0.0000
vt 0.4636 0.3431 0.0000
vt 0.4239 0.3431 0.0000
vt 0.5429 0.3036 0.0000
vt 0.5826 0.3431 0.0000
vt 0.5032 0.3036 0.0000
vt 0.4636 0.3036 0.0000
vt 0.4239 0.3036 0.0000
vt 0.5429 0.2642 0.0000
vt 0.5826 0.3036 0.0000
vt 0.5032 0.2642 0.0000
vt 0.4636 0.2642 0.0000
vt 0.4239 0.2642 0.0000
vt 0.6222 0.4613 0.0000
vt 0.3842 0.4613 0.0000
vt 0.3842 0.4219 0.0000
vt 0.3842 0.2642 0.0000
vt 0.3842 0.3036 0.0000
vt 0.6222 0.3036 0.0000
vt 0.6222 0.3431 0.0000
vt 0.5826 0.2642 0.0000
vt 0.6222 0.2642 0.0000
vt 0.3842 0.3825 0.0000
vt 0.6222 0.3825 0.0000
vt 0.3842 0.3431 0.0000
vt 0.6222 0.4219 0.0000
vt 0.5826 0.2248 0.0000
vt 0.5429 0.2248 0.0000
vt 0.5429 0.1854 0.0000
vt 0.5429 0.1460 0.0000
vt 0.5826 0.1854 0.0000
vt 0.5032 0.2248 0.0000
vt 0.5032 0.1854 0.0000
vt 0.5032 0.1460 0.0000
vt 0.4636 0.2248 0.0000
vt 0.4636 0.1854 0.0000
vt 0.4636 0.1460 0.0000
vt 0.4239 0.2248 0.0000
vt 0.4239 0.1854 0.0000
vt 0.4239 0.1460 0.0000
vt 0.5429 0.1066 0.0000
vt 0.5826 0.1460 0.0000
vt 0.5032 0.1066 0.0000
vt 0.4636 0.1066 0.0000
vt 0.4239 0.1066 0.0000
vt 0.5429 0.0672 0.0000
vt 0.5826 0.1066 0.0000
vt 0.5032 0.0672 0.0000
vt 0.4636 0.0672 0.0000
vt 0.4239 0.0672 0.0000
vt 0.5429 0.0278 0.0000
vt 0.5826 0.0672 0.0000
vt 0.5032 0.0278 0.0000
vt 0.4636 0.0278 0.0000
vt 0.4239 0.0278 0.0000
vt 0.6222 0.2248 0.0000
vt 0.3842 0.2248 0.0000
vt 0.3842 0.1854 0.0000
vt 0.3842 0.0278 0.0000
vt 0.3842 0.0672 0.0000
vt 0.6222 0.0672 0.0000
vt 0.6222 0.1066 0.0000
vt 0.5826 0.0278 0.0000
vt 0.6222 0.0278 0.0000
vt 0.3842 0.1460 0.0000
vt 0.6222 0.1460 0.0000
vt 0.3842 0.1066 0.0000
vt 0.6222 0.1854 0.0000
vt 0.5826 0.9341 0.0000
vt 0.5826 0.9735 0.0000
vt 0.5429 0.9341 0.0000
vt 0.5429 0.8947 0.0000
vt 0.5429 0.8553 0.0000
vt 0.5826 0.8947 0.0000
vt 0.5429 0.9735 0.0000
vt 0.5032 0.9341 0.0000
vt 0.5032 0.8947 0.0000
vt 0.5032 0.8553 0.0000
vt 0.5032 0.9735 0.0000
vt 0.4636 0.9341 0.0000
vt 0.4636 0.8947 0.0000
vt 0.4636 0.8553 0.0000
vt 0.4636 0.9735 0.0000
vt 0.4239 0.9341 0.0000
vt 0.4239 0.8947 0.0000
vt 0.4239 0.8553 0.0000
vt 0.5429 0.8159 0.0000
vt 0.5826 0.8553 0.0000
vt 0.5032 0.8159 0.0000
vt 0.4636 0.8159 0.0000
vt 0.4239 0.8159 0.0000
vt 0.5429 0.7765 0.0000
vt 0.5826 0.8159 0.0000
vt 0.5032 0.7765 0.0000
vt 0.4636 0.7765 0.0000
vt 0.4239 0.7765 0.0000
vt 0.5826 0.7765 0.0000
vt 0.6222 0.9735 0.0000
vt 0.6222 0.9341 0.0000
vt 0.3842 0.9341 0.0000
vt 0.3842 0.8947 0.0000
vt 0.4239 0.9735 0.0000
vt 0.3842 0.9735 0.0000
vt 0.3842 0.7765 0.0000
vt 0.6222 0.7765 0.0000
vt 0.6222 0.8159 0.0000
vt 0.3842 0.8553 0.0000
vt 0.6222 0.8553 0.0000
vt 0.3842 0.8159 0.0000
vt 0.6222 0.8947 0.0000
vt 0.3446 0.6977 0.0000
vt 0.3446 0.7371 0.0000
vt 0.3049 0.6977 0.0000
vt 0.3049 0.6583 0.0000
vt 0.3049 0.6189 0.0000
vt 0.3446 0.6583 0.0000
vt 0.3049 0.7371 0.0000
vt 0.2653 0.6977 0.0000
vt 0.2653 0.6583 0.0000
vt 0.2653 0.6189 0.0000
vt 0.2653 0.7371 0.0000
vt 0.2256 0.6977 0.0000
vt 0.2256 0.6583 0.0000
vt 0.2256 0.6189 0.0000
vt 0.2256 0.7371 0.0000
vt 0.1859 0.6977 0.0000
vt 0.1859 0.6583 0.0000
vt 0.1859 0.6189 0.0000
vt 0.3049 0.5795 0.0000
vt 0.3446 0.6189 0.0000
vt 0.2653 0.5795 0.0000
vt 0.2256 0.5795 0.0000
vt 0.1859 0.5795 0.0000
vt 0.3049 0.5401 0.0000
vt 0.3446 0.5795 0.0000
vt 0.2653 0.5401 0.0000
vt 0.2256 0.5401 0.0000
vt 0.1859 0.5401 0.0000
vt 0.3049 0.5007 0.0000
vt 0.3446 0.5401 0.0000
vt 0.2653 0.5007 0.0000
vt 0.2256 0.5007 0.0000
vt 0.1859 0.5007 0.0000
vt 0.1463 0.6977 0.0000
vt 0.1463 0.6583 0.0000
vt 0.1859 0.7371 0.0000
vt 0.1463 0.7371 0.0000
vt 0.1463 0.5007 0.0000
vt 0.1463 0.5401 0.0000
vt 0.3446 0.5007 0.0000
vt 0.1463 0.6189 0.0000
vt 0.1463 0.5795 0.0000
vt 0.8205 0.6977 0.0000
vt 0.8205 0.7371 0.0000
vt 0.7809 0.6977 0.0000
vt 0.7809 0.6583 0.0000
vt 0.7809 0.6189 0.0000
vt 0.8205 0.6583 0.0000
vt 0.7809 0.7371 0.0000
vt 0.7412 0.6977 0.0000
vt 0.7412 0.6583 0.0000
vt 0.7412 0.6189 0.0000
vt 0.7412 0.7371 0.0000
vt 0.7015 0.6977 0.0000
vt 0.7015 0.6583 0.0000
vt 0.7015 0.6189 0.0000
vt 0.7015 0.7371 0.0000
vt 0.6619 0.6977 0.0000
vt 0.6619 0.6583 0.0000
vt 0.6619 0.6189 0.0000
vt 0.7809 0.5795 0.0000
vt 0.8205 0.6189 0.0000
vt 0.7412 0.5795 0.0000
vt 0.7015 0.5795 0.0000
vt 0.6619 0.5795 0.0000
vt 0.7809 0.5401 0.0000
vt 0.8205 0.5795 0.0000
vt 0.7412 0.5401 0.0000
vt 0.7015 0.5401 0.0000
vt 0.6619 0.5401 0.0000
vt 0.7809 0.5007 0.0000
vt 0.8205 0.5401 0.0000
vt 0.7412 0.5007 0.0000
vt 0.7015 0.5007 0.0000
vt 0.6619 0.5007 0.0000
vt 0.8602 0.7371 0.0000
vt 0.8602 0.6977 0.0000
vt 0.6619 0.7371 0.0000
vt 0.8602 0.5401 0.0000
vt 0.8602 0.5795 0.0000
vt 0.8205 0.5007 0.0000
vt 0.8602 0.5007 0.0000
vt 0.8602 0.6189 0.0000
vt 0.8602 0.6583 0.0000
# 259 texture coords

o Box002
g Box002
usemtl Material__26
s 1
f 1/1/1 2/2/2 3/3/3 4/4/4 
f 4/4/4 5/5/4 6/6/5 1/1/1 
f 3/3/3 7/7/6 8/8/3 9/9/4 
f 9/9/4 10/10/4 4/4/4 3/3/3 
f 8/8/3 11/11/6 12/12/1 13/13/4 
f 13/13/4 14/14/4 9/9/4 8/8/3 
f 12/12/1 15/15/2 16/16/1 17/17/5 
f 17/17/5 18/18/5 13/13/4 12/12/1 
f 5/5/4 19/19/3 20/20/5 6/6/5 
f 10/10/4 21/21/3 5/5/4 4/4/4 
f 14/14/4 22/22/3 10/10/4 9/9/4 
f 18/18/5 23/23/3 14/14/4 13/13/4 
f 19/19/3 24/24/4 25/25/1 20/20/5 
f 21/21/3 26/26/3 19/19/3 5/5/4 
f 22/22/3 27/27/3 21/21/3 10/10/4 
f 23/23/3 28/28/3 22/22/3 14/14/4 
f 24/24/4 29/29/7 30/30/4 25/25/1 
f 26/26/3 31/31/8 24/24/4 19/19/3 
f 27/27/3 32/32/8 26/26/3 21/21/3 
f 28/28/3 33/33/7 27/27/3 22/22/3 
f 34/34/9 2/2/2 1/1/1 35/35/10 
f 36/36/11 37/37/12 16/16/1 38/38/6 
f 38/38/6 39/39/13 36/36/11 
f 40/40/14 33/33/7 28/28/3 41/41/11 
f 42/42/10 43/43/15 30/30/4 44/44/8 
f 44/44/8 45/45/16 42/42/10 
f 2/2/2 7/7/6 3/3/3 
f 37/37/12 46/46/12 17/17/5 16/16/1 
f 33/33/7 32/32/8 27/27/3 
f 43/43/15 47/47/15 25/25/1 30/30/4 
f 7/7/6 11/11/6 8/8/3 
f 46/46/12 48/48/11 18/18/5 17/17/5 
f 32/32/8 31/31/8 26/26/3 
f 47/47/15 49/49/15 20/20/5 25/25/1 
f 11/11/6 15/15/2 12/12/1 
f 48/48/11 41/41/11 23/23/3 18/18/5 
f 31/31/8 29/29/7 24/24/4 
f 49/49/15 35/35/10 6/6/5 20/20/5 
f 15/15/2 38/38/6 16/16/1 
f 41/41/11 28/28/3 23/23/3 
f 29/29/7 44/44/8 30/30/4 
f 35/35/10 1/1/1 6/6/5 
s 2
f 50/50/17 44/44/8 51/51/18 52/52/19 
f 52/52/19 53/53/19 54/54/20 50/50/17 
f 51/51/18 29/29/7 55/55/18 56/56/19 
f 56/56/19 57/57/19 52/52/19 51/51/18 
f 55/55/18 31/31/8 58/58/20 59/59/19 
f 59/59/19 60/60/19 56/56/19 55/55/18 
f 58/58/20 32/32/8 61/61/18 62/62/20 
f 62/62/20 63/63/20 59/59/19 58/58/20 
f 53/53/19 64/64/18 65/65/20 54/54/20 
f 57/57/19 66/66/18 53/53/19 52/52/19 
f 60/60/19 67/67/18 57/57/19 56/56/19 
f 63/63/20 68/68/18 60/60/19 59/59/19 
f 64/64/18 69/69/19 70/70/17 65/65/20 
f 66/66/18 71/71/18 64/64/18 53/53/19 
f 67/67/18 72/72/18 66/66/18 57/57/19 
f 68/68/18 73/73/18 67/67/18 60/60/19 
f 69/69/19 74/74/21 75/75/19 70/70/17 
f 71/71/18 76/76/22 69/69/19 64/64/18 
f 72/72/18 77/77/22 71/71/18 66/66/18 
f 73/73/18 78/78/21 72/72/18 67/67/18 
f 45/45/16 44/44/8 50/50/17 79/79/23 
f 80/80/24 81/81/25 61/61/18 33/33/7 
f 33/33/7 40/40/14 80/80/24 
f 82/82/26 78/78/21 73/73/18 83/83/24 
f 84/84/23 85/85/27 75/75/19 86/86/22 
f 86/86/22 87/87/28 84/84/23 
f 44/44/8 29/29/7 51/51/18 
f 81/81/25 88/88/25 62/62/20 61/61/18 
f 78/78/21 77/77/22 72/72/18 
f 85/85/27 89/89/27 70/70/17 75/75/19 
f 29/29/7 31/31/8 55/55/18 
f 88/88/25 90/90/24 63/63/20 62/62/20 
f 77/77/22 76/76/22 71/71/18 
f 89/89/27 91/91/27 65/65/20 70/70/17 
f 31/31/8 32/32/8 58/58/20 
f 90/90/24 83/83/24 68/68/18 63/63/20 
f 76/76/22 74/74/21 69/69/19 
f 91/91/27 79/79/23 54/54/20 65/65/20 
f 32/32/8 33/33/7 61/61/18 
f 83/83/24 73/73/18 68/68/18 
f 74/74/21 86/86/22 75/75/19 
f 79/79/23 50/50/17 54/54/20 
s 4
f 92/92/29 86/86/22 93/93/30 94/94/31 
f 94/94/31 95/95/31 96/96/32 92/92/29 
f 93/93/30 74/74/21 97/97/30 98/98/31 
f 98/98/31 99/99/31 94/94/31 93/93/30 
f 97/97/30 76/76/22 100/100/32 101/101/31 
f 101/101/31 102/102/31 98/98/31 97/97/30 
f 100/100/32 77/77/22 103/103/30 104/104/32 
f 104/104/32 105/105/32 101/101/31 100/100/32 
f 95/95/31 106/106/31 107/107/32 96/96/32 
f 99/99/31 108/108/31 95/95/31 94/94/31 
f 102/102/31 109/109/31 99/99/31 98/98/31 
f 105/105/32 110/110/31 102/102/31 101/101/31 
f 106/106/31 111/111/31 112/112/32 107/107/32 
f 108/108/31 113/113/31 106/106/31 95/95/31 
f 109/109/31 114/114/30 108/108/31 99/99/31 
f 110/110/31 115/115/30 109/109/31 102/102/31 
f 111/111/31 116/116/33 117/117/31 112/112/32 
f 113/113/31 118/118/34 111/111/31 106/106/31 
f 114/114/30 119/119/34 113/113/31 108/108/31 
f 115/115/30 120/120/33 114/114/30 109/109/31 
f 87/87/28 86/86/22 92/92/29 121/121/35 
f 122/122/36 123/123/37 103/103/30 78/78/21 
f 78/78/21 82/82/26 122/122/36 
f 124/124/38 120/120/33 115/115/30 125/125/37 
f 126/126/35 127/127/39 117/117/31 128/128/34 
f 128/128/34 129/129/40 126/126/35 
f 86/86/22 74/74/21 93/93/30 
f 123/123/37 130/130/37 104/104/32 103/103/30 
f 120/120/33 119/119/34 114/114/30 
f 127/127/39 131/131/39 112/112/32 117/117/31 
f 74/74/21 76/76/22 97/97/30 
f 130/130/37 132/132/37 105/105/32 104/104/32 
f 119/119/34 118/118/34 113/113/31 
f 131/131/39 133/133/35 107/107/32 112/112/32 
f 76/76/22 77/77/22 100/100/32 
f 132/132/37 125/125/37 110/110/31 105/105/32 
f 118/118/34 116/116/33 111/111/31 
f 133/133/35 121/121/35 96/96/32 107/107/32 
f 77/77/22 78/78/21 103/103/30 
f 125/125/37 115/115/30 110/110/31 
f 116/116/33 128/128/34 117/117/31 
f 121/121/35 92/92/29 96/96/32 
s 8
f 134/134/41 128/135/34 135/136/42 136/137/43 
f 136/137/43 137/138/43 138/139/44 134/134/41 
f 135/136/42 116/140/33 139/141/42 140/142/43 
f 140/142/43 141/143/43 136/137/43 135/136/42 
f 139/141/42 118/144/34 142/145/44 143/146/43 
f 143/146/43 144/147/43 140/142/43 139/141/42 
f 142/145/44 119/148/34 145/149/42 146/150/44 
f 146/150/44 147/151/44 143/146/43 142/145/44 
f 137/138/43 148/152/43 149/153/44 138/139/44 
f 141/143/43 150/154/43 137/138/43 136/137/43 
f 144/147/43 151/155/43 141/143/43 140/142/43 
f 147/151/44 152/156/43 144/147/43 143/146/43 
f 148/152/43 153/157/43 154/158/44 149/153/44 
f 150/154/43 155/159/43 148/152/43 137/138/43 
f 151/155/43 156/160/43 150/154/43 141/143/43 
f 152/156/43 157/161/43 151/155/43 144/147/43 
f 153/157/43 7/7/6 158/162/44 154/158/44 
f 155/159/43 11/11/6 153/157/43 148/152/43 
f 156/160/43 15/15/2 155/159/43 150/154/43 
f 157/161/43 38/38/6 156/160/43 151/155/43 
f 129/163/40 128/135/34 134/134/41 159/164/45 
f 160/165/46 161/166/47 145/149/42 120/167/33 
f 120/167/33 124/168/38 160/165/46 
f 39/39/13 38/38/6 157/161/43 162/169/47 
f 163/170/45 164/171/48 158/162/44 2/2/2 
f 2/2/2 34/34/9 163/170/45 
f 128/135/34 116/140/33 135/136/42 
f 161/166/47 165/172/47 146/150/44 145/149/42 
f 38/38/6 15/15/2 156/160/43 
f 164/171/48 166/173/48 154/158/44 158/162/44 
f 116/140/33 118/144/34 139/141/42 
f 165/172/47 167/174/47 147/151/44 146/150/44 
f 15/15/2 11/11/6 155/159/43 
f 166/173/48 168/175/45 149/153/44 154/158/44 
f 118/144/34 119/148/34 142/145/44 
f 167/174/47 162/169/47 152/156/43 147/151/44 
f 11/11/6 7/7/6 153/157/43 
f 168/175/45 159/164/45 138/139/44 149/153/44 
f 119/148/34 120/167/33 145/149/42 
f 162/169/47 157/161/43 152/156/43 
f 7/7/6 2/2/2 158/162/44 
f 159/164/45 134/134/41 138/139/44 
s 16
f 169/176/49 162/177/47 170/178/49 171/179/49 
f 171/179/49 172/180/49 173/181/49 169/176/49 
f 170/178/49 167/182/47 174/183/49 175/184/49 
f 175/184/49 176/185/49 171/179/49 170/178/49 
f 174/183/49 165/186/47 177/187/49 178/188/49 
f 178/188/49 179/189/49 175/184/49 174/183/49 
f 177/187/49 161/190/47 180/191/49 181/192/49 
f 181/192/49 182/193/49 178/188/49 177/187/49 
f 172/180/49 183/194/49 184/195/49 173/181/49 
f 176/185/49 185/196/49 172/180/49 171/179/49 
f 179/189/49 186/197/49 176/185/49 175/184/49 
f 182/193/49 187/198/49 179/189/49 178/188/49 
f 183/194/49 188/199/49 189/200/49 184/195/49 
f 185/196/49 190/201/49 183/194/49 172/180/49 
f 186/197/49 191/202/49 185/196/49 176/185/49 
f 187/198/49 192/203/49 186/197/49 179/189/49 
f 188/199/49 81/204/25 193/205/49 189/200/49 
f 190/201/49 88/206/25 188/199/49 183/194/49 
f 191/202/49 90/207/24 190/201/49 185/196/49 
f 192/203/49 83/208/24 191/202/49 186/197/49 
f 39/39/13 162/177/47 169/176/49 36/36/11 
f 125/209/37 132/210/37 180/191/49 160/211/46 
f 160/211/46 124/212/38 125/209/37 
f 82/213/26 83/208/24 192/203/49 122/214/36 
f 41/41/11 48/48/11 193/205/49 80/215/24 
f 80/215/24 40/40/14 41/41/11 
f 162/177/47 167/182/47 170/178/49 
f 132/210/37 130/216/37 181/192/49 180/191/49 
f 83/208/24 90/207/24 191/202/49 
f 48/48/11 46/46/12 189/200/49 193/205/49 
f 167/182/47 165/186/47 174/183/49 
f 130/216/37 123/217/37 182/193/49 181/192/49 
f 90/207/24 88/206/25 190/201/49 
f 46/46/12 37/37/12 184/195/49 189/200/49 
f 165/186/47 161/190/47 177/187/49 
f 123/217/37 122/214/36 187/198/49 182/193/49 
f 88/206/25 81/204/25 188/199/49 
f 37/37/12 36/36/11 173/181/49 184/195/49 
f 161/190/47 160/211/46 180/191/49 
f 122/214/36 192/203/49 187/198/49 
f 81/204/25 80/215/24 193/205/49 
f 36/36/11 169/176/49 173/181/49 
s 32
f 194/218/50 159/219/45 195/220/50 196/221/51 
f 196/221/51 197/222/51 198/223/52 194/218/50 
f 195/220/50 168/224/45 199/225/50 200/226/51 
f 200/226/51 201/227/51 196/221/51 195/220/50 
f 199/225/50 166/228/48 202/229/52 203/230/51 
f 203/230/51 204/231/51 200/226/51 199/225/50 
f 202/229/52 164/232/48 205/233/50 206/234/52 
f 206/234/52 207/235/52 203/230/51 202/229/52 
f 197/222/51 208/236/50 209/237/52 198/223/52 
f 201/227/51 210/238/50 197/222/51 196/221/51 
f 204/231/51 211/239/50 201/227/51 200/226/51 
f 207/235/52 212/240/53 204/231/51 203/230/51 
f 208/236/50 213/241/51 214/242/53 209/237/52 
f 210/238/50 215/243/50 208/236/50 197/222/51 
f 211/239/50 216/244/50 210/238/50 201/227/51 
f 212/240/53 217/245/53 211/239/50 204/231/51 
f 213/241/51 85/246/27 218/247/52 214/242/53 
f 215/243/50 89/248/27 213/241/51 208/236/50 
f 216/244/50 91/249/27 215/243/50 210/238/50 
f 217/245/53 79/250/23 216/244/50 211/239/50 
f 129/251/40 159/219/45 194/218/50 126/252/35 
f 35/35/10 49/49/15 205/233/50 163/253/45 
f 163/253/45 34/34/9 35/35/10 
f 45/45/16 79/250/23 217/245/53 42/42/10 
f 121/254/35 133/255/35 218/247/52 84/256/23 
f 84/256/23 87/257/28 121/254/35 
f 159/219/45 168/224/45 195/220/50 
f 49/49/15 47/47/15 206/234/52 205/233/50 
f 79/250/23 91/249/27 216/244/50 
f 133/255/35 131/258/39 214/242/53 218/247/52 
f 168/224/45 166/228/48 199/225/50 
f 47/47/15 43/43/15 207/235/52 206/234/52 
f 91/249/27 89/248/27 215/243/50 
f 131/258/39 127/259/39 209/237/52 214/242/53 
f 166/228/48 164/232/48 202/229/52 
f 43/43/15 42/42/10 212/240/53 207/235/52 
f 89/248/27 85/246/27 213/241/51 
f 127/259/39 126/252/35 198/223/52 209/237/52 
f 164/232/48 163/253/45 205/233/50 
f 42/42/10 217/245/53 212/240/53 
f 85/246/27 84/256/23 218/247/52 
f 126/252/35 194/218/50 198/223/52 
# 180 polygons - 72 triangles

